<svg xmlns="http://www.w3.org/2000/svg" xmlns:xlink="http://www.w3.org/1999/xlink" width="650" height="494" viewBox="0 0 650 494">
  <defs>
    <clipPath id="clip-path">
      <rect id="Rectangle_371" data-name="Rectangle 371" width="650" height="494" transform="translate(14293.416 1278)" fill="#fff" stroke="#707070" stroke-width="1"/>
    </clipPath>
  </defs>
  <g id="Mask_Group_6" data-name="Mask Group 6" transform="translate(-14293.416 -1278)" clip-path="url(#clip-path)">
    <g id="undraw_teaching_f1cm" transform="translate(14295.709 1278)">
      <rect id="Rectangle_372" data-name="Rectangle 372" width="58.519" height="16.919" rx="4.048" transform="translate(131.92 84.593)" fill="#f8f8f8" opacity="0.1"/>
      <rect id="Rectangle_373" data-name="Rectangle 373" width="58.519" height="16.919" rx="4.048" transform="translate(193.161 101.512)" fill="#3e965b" opacity="0.1"/>
      <rect id="Rectangle_374" data-name="Rectangle 374" width="58.519" height="16.919" rx="4.048" transform="translate(254.402 118.43)" fill="#3e965b" opacity="0.1"/>
      <rect id="Rectangle_375" data-name="Rectangle 375" width="58.519" height="16.919" rx="4.048" transform="translate(131.92 59.215)" fill="#f8f8f8" opacity="0.1"/>
      <rect id="Rectangle_376" data-name="Rectangle 376" width="58.519" height="16.919" rx="4.048" transform="translate(193.161 76.134)" fill="#f8f8f8" opacity="0.1"/>
      <rect id="Rectangle_377" data-name="Rectangle 377" width="58.519" height="16.919" rx="4.048" transform="translate(254.402 93.052)" fill="#3e965b" opacity="0.1"/>
      <rect id="Rectangle_378" data-name="Rectangle 378" width="58.519" height="16.919" rx="4.048" transform="translate(322.447 84.593)" fill="#3e965b" opacity="0.1"/>
      <rect id="Rectangle_379" data-name="Rectangle 379" width="58.519" height="16.919" rx="4.048" transform="translate(383.688 101.512)" fill="#3e965b" opacity="0.1"/>
      <rect id="Rectangle_380" data-name="Rectangle 380" width="58.519" height="16.919" rx="4.048" transform="translate(444.929 118.43)" fill="#3e965b" opacity="0.1"/>
      <rect id="Rectangle_381" data-name="Rectangle 381" width="58.519" height="16.919" rx="4.048" transform="translate(322.447 59.215)" fill="#f8f8f8" opacity="0.1"/>
      <rect id="Rectangle_382" data-name="Rectangle 382" width="58.519" height="16.919" rx="4.048" transform="translate(383.688 76.134)" fill="#f8f8f8" opacity="0.1"/>
      <rect id="Rectangle_383" data-name="Rectangle 383" width="58.519" height="16.919" rx="4.048" transform="translate(444.929 93.052)" fill="#3e965b" opacity="0.1"/>
      <rect id="Rectangle_384" data-name="Rectangle 384" width="58.519" height="16.919" rx="4.048" transform="translate(131.92 25.378)" fill="#f8f8f8" opacity="0.1"/>
      <rect id="Rectangle_385" data-name="Rectangle 385" width="58.519" height="16.919" rx="4.048" transform="translate(193.161 42.297)" fill="#f8f8f8" opacity="0.1"/>
      <rect id="Rectangle_386" data-name="Rectangle 386" width="58.519" height="16.919" rx="4.048" transform="translate(254.402 59.215)" fill="#f8f8f8" opacity="0.1"/>
      <rect id="Rectangle_387" data-name="Rectangle 387" width="58.519" height="16.919" rx="4.048" transform="translate(131.92)" fill="#f8f8f8" opacity="0.1"/>
      <rect id="Rectangle_388" data-name="Rectangle 388" width="58.519" height="16.919" rx="4.048" transform="translate(193.161 16.919)" fill="#f8f8f8" opacity="0.1"/>
      <rect id="Rectangle_389" data-name="Rectangle 389" width="58.519" height="16.919" rx="4.048" transform="translate(254.402 33.837)" fill="#f8f8f8" opacity="0.1"/>
      <rect id="Rectangle_390" data-name="Rectangle 390" width="58.519" height="16.919" rx="4.048" transform="translate(322.447 25.378)" fill="#f8f8f8" opacity="0.1"/>
      <rect id="Rectangle_391" data-name="Rectangle 391" width="58.519" height="16.919" rx="4.048" transform="translate(383.688 42.297)" fill="#f8f8f8" opacity="0.1"/>
      <rect id="Rectangle_392" data-name="Rectangle 392" width="58.519" height="16.919" rx="4.048" transform="translate(444.929 59.215)" fill="#f8f8f8" opacity="0.1"/>
      <rect id="Rectangle_393" data-name="Rectangle 393" width="58.519" height="16.919" rx="4.048" transform="translate(322.447)" fill="#f8f8f8" opacity="0.1"/>
      <rect id="Rectangle_394" data-name="Rectangle 394" width="58.519" height="16.919" rx="4.048" transform="translate(383.688 16.919)" fill="#f8f8f8" opacity="0.1"/>
      <rect id="Rectangle_395" data-name="Rectangle 395" width="58.519" height="16.919" rx="4.048" transform="translate(444.929 33.837)" fill="#f8f8f8" opacity="0.1"/>
      <rect id="Rectangle_396" data-name="Rectangle 396" width="58.519" height="16.919" rx="4.048" transform="translate(131.92 385.875)" fill="#f8f8f8" opacity="0.1"/>
      <rect id="Rectangle_397" data-name="Rectangle 397" width="58.519" height="16.919" rx="4.048" transform="translate(193.161 402.793)" fill="#f8f8f8" opacity="0.1"/>
      <rect id="Rectangle_398" data-name="Rectangle 398" width="58.519" height="16.919" rx="4.048" transform="translate(254.402 419.712)" fill="#f8f8f8" opacity="0.1"/>
      <rect id="Rectangle_399" data-name="Rectangle 399" width="58.519" height="16.919" rx="4.048" transform="translate(131.92 360.497)" fill="#f8f8f8" opacity="0.1"/>
      <rect id="Rectangle_400" data-name="Rectangle 400" width="58.519" height="16.919" rx="4.048" transform="translate(193.161 377.415)" fill="#f8f8f8" opacity="0.1"/>
      <rect id="Rectangle_401" data-name="Rectangle 401" width="58.519" height="16.919" rx="4.048" transform="translate(254.402 394.334)" fill="#f8f8f8" opacity="0.1"/>
      <rect id="Rectangle_402" data-name="Rectangle 402" width="58.519" height="16.919" rx="4.048" transform="translate(322.447 385.875)" fill="#f8f8f8" opacity="0.1"/>
      <rect id="Rectangle_403" data-name="Rectangle 403" width="58.519" height="16.919" rx="4.048" transform="translate(383.688 402.793)" fill="#f8f8f8" opacity="0.1"/>
      <rect id="Rectangle_404" data-name="Rectangle 404" width="58.519" height="16.919" rx="4.048" transform="translate(444.929 419.712)" fill="#3e965b" opacity="0.1"/>
      <rect id="Rectangle_405" data-name="Rectangle 405" width="58.519" height="16.919" rx="4.048" transform="translate(322.447 360.497)" fill="#f8f8f8" opacity="0.1"/>
      <rect id="Rectangle_406" data-name="Rectangle 406" width="58.519" height="16.919" rx="4.048" transform="translate(383.688 377.415)" fill="#f8f8f8" opacity="0.1"/>
      <rect id="Rectangle_407" data-name="Rectangle 407" width="58.519" height="16.919" rx="4.048" transform="translate(444.929 394.334)" fill="#3e965b" opacity="0.1"/>
      <rect id="Rectangle_408" data-name="Rectangle 408" width="58.519" height="16.919" rx="4.048" transform="translate(131.92 326.659)" fill="#f8f8f8" opacity="0.1"/>
      <rect id="Rectangle_409" data-name="Rectangle 409" width="58.519" height="16.919" rx="4.048" transform="translate(193.161 343.578)" fill="#f8f8f8" opacity="0.1"/>
      <rect id="Rectangle_410" data-name="Rectangle 410" width="58.519" height="16.919" rx="4.048" transform="translate(254.402 360.497)" fill="#f8f8f8" opacity="0.1"/>
      <rect id="Rectangle_411" data-name="Rectangle 411" width="58.519" height="16.919" rx="4.048" transform="translate(131.92 301.282)" fill="#3e965b" opacity="0.1"/>
      <rect id="Rectangle_412" data-name="Rectangle 412" width="58.519" height="16.919" rx="4.048" transform="translate(193.161 318.2)" fill="#3e965b" opacity="0.1"/>
      <rect id="Rectangle_413" data-name="Rectangle 413" width="58.519" height="16.919" rx="4.048" transform="translate(254.402 335.119)" fill="#f8f8f8" opacity="0.1"/>
      <rect id="Rectangle_414" data-name="Rectangle 414" width="58.519" height="16.919" rx="4.048" transform="translate(322.447 326.659)" fill="#f8f8f8" opacity="0.1"/>
      <rect id="Rectangle_415" data-name="Rectangle 415" width="58.519" height="16.919" rx="4.048" transform="translate(383.688 343.578)" fill="#f8f8f8" opacity="0.1"/>
      <rect id="Rectangle_416" data-name="Rectangle 416" width="58.519" height="16.919" rx="4.048" transform="translate(444.929 360.497)" fill="#3e965b" opacity="0.1"/>
      <rect id="Rectangle_417" data-name="Rectangle 417" width="58.519" height="16.919" rx="4.048" transform="translate(322.447 301.282)" fill="#3e965b" opacity="0.1"/>
      <rect id="Rectangle_418" data-name="Rectangle 418" width="58.519" height="16.919" rx="4.048" transform="translate(383.688 318.2)" fill="#f8f8f8" opacity="0.1"/>
      <rect id="Rectangle_419" data-name="Rectangle 419" width="58.519" height="16.919" rx="4.048" transform="translate(444.929 335.119)" fill="#3e965b" opacity="0.1"/>
      <ellipse id="Ellipse_48" data-name="Ellipse 48" cx="298.379" cy="23.426" rx="298.379" ry="23.426" transform="translate(29.852 446.391)" fill="#f8f8f8" opacity="0.1"/>
      <path id="Path_409" data-name="Path 409" d="M126.154,141.7c28.137,11.661,44.3,35.789,44.3,35.789s-29.457,5.206-57.6-6.449-44.3-35.789-44.3-35.789S98.011,130.041,126.154,141.7Z" transform="translate(-68.554 -20.148)" fill="#3e965b"/>
      <path id="Path_410" data-name="Path 410" d="M185.415,106.259c8.7-13.665,23.523-20.172,23.523-20.172s.68,15.578-8,29.2-23.53,20.127-23.53,20.127S176.705,119.846,185.415,106.259Z" transform="translate(-41.465 -29.475)" fill="#3e965b"/>
      <path id="Path_411" data-name="Path 411" d="M133.1,122.01c6.226,21.252,23.387,35.243,23.387,35.243s7.07-20.478.844-41.737-23.394-35.243-23.394-35.243S126.869,100.752,133.1,122.01Z" transform="translate(-53.128 -30.604)" fill="#46455b"/>
      <rect id="Rectangle_420" data-name="Rectangle 420" width="496.052" height="237.511" rx="3.928" transform="translate(80.886 90.45)" fill="#444263"/>
      <path id="Path_412" data-name="Path 412" d="M64.767,262.62H560.818v9.624a4.8,4.8,0,0,1-4.906,4.692H69.673a4.8,4.8,0,0,1-4.906-4.692Z" transform="translate(16.119 51.025)" opacity="0.1"/>
      <rect id="Rectangle_421" data-name="Rectangle 421" width="36.745" height="17.569" rx="1.362" transform="translate(129.198 296.076)" fill="#3e965b"/>
      <rect id="Rectangle_422" data-name="Rectangle 422" width="25.177" height="2.603" rx="1.09" transform="translate(176.149 311.042)" fill="#3e965b"/>
      <path id="Path_413" data-name="Path 413" d="M199.74,155.129c17.957,3.169,36.275,0,54.157-2.147l54.348-6.507c2.2-.267,5.4-1.523,6.689,1.048.728,1.438.238,4.555.293,6.208.143,4.555.129,9.11,0,13.665-.245,8.707-.912,17.394-1.762,26.061-1.653,16.964-3.994,33.837-5.165,50.867-.6,8.668-.9,17.361-.633,26.029.061,2.069.15,4.139.279,6.2.143,2.31,1.225,5.739-1.409,7.282-1.5.885-4.464.839-6.185,1.1-2.722.41-5.444.735-8.22,1-18.3,1.75-36.833,1.022-55.2.918l-55.457-.273-13.527-.072c-1.225,0-5.641.7-6.4-.69-.32-.592.531-3.364.68-4.106q.313-1.835.68-3.664c1.579-8.557,3.443-17.062,5.321-25.56,4.035-18.22,8.165-36.531,9.826-55.142.823-9.338.279-18.76,1.286-28.078.47-4.327,1.027-13.984,7.049-14.368,5.1-.325,10.357,0,15.474,0a.977.977,0,1,0,0-1.952c-4.831,0-9.669-.124-14.5-.033-3.212.059-5.444.787-6.975,3.611-3.913,7.249-3.511,16.919-3.634,24.831-.293,18.942-3.334,37.481-7.294,56.007-1.994,9.325-4.144,18.617-6.124,27.948-.932,4.457-1.824,8.928-2.64,13.411-.381,2.134-2.307,6.839-.612,8.8s6.907.9,9.241.918l16.236.091,31.11.169c20.1.111,40.269.651,60.363.085,9.594-.273,19.733-.651,29.076-2.844,2.783-.651,4.124-1.874,4.232-4.711.163-4.4-.585-8.934-.681-13.353-.68-37.807,8.608-75.086,7.655-112.906-.061-2.57.953-9.051-1.987-10.607-1.32-.7-3.035-.319-4.423-.163-2.654.293-5.3.651-7.955.95l-34.465,4.113c-11.017,1.3-22.026,2.707-33.063,3.9-11.683,1.3-23.483,2.076-35.125,0-1.286-.228-1.837,1.653-.544,1.881Z" transform="translate(-45.944 -18.231)" fill="#3e965b"/>
      <path id="Path_414" data-name="Path 414" d="M174.549,173.927l135.969-6.377c1.313-.065,1.32-2.017,0-1.952l-135.969,6.377A.976.976,0,1,0,174.549,173.927Z" transform="translate(-42.419 -14.027)" fill="#3e965b"/>
      <path id="Path_415" data-name="Path 415" d="M208.08,160.121a3.157,3.157,0,0,0-.849,2.93,3.3,3.3,0,0,0,2.053,2.321c1.83.8,3.981.13,5.8-.306,2.722-.651,5.444-1.23,8.24-1.7a117.366,117.366,0,0,1,18.434-1.64c2.817-.033,5.614.091,8.431.208,2.041.078,4.239.234,5.968-.976,1.973-1.38,2.613-4.073.68-5.752-2.722-2.375-8.587-1-11.731-.748a274.305,274.305,0,0,0-33.927,4.841c-1.279.26-.742,2.147.544,1.881q11.071-2.284,22.312-3.67,5.525-.651,11.071-1.1c1.742-.137,3.484-.26,5.226-.358.68-.039,1.4-.111,2.1-.091,2.157.046,2.409-.325,1.116,2.167-1.15,2.206-.783,1.952-2.776,1.881-.844,0-1.688-.091-2.531-.13q-2.593-.1-5.185-.111-5.518,0-11.01.508c-3.1.286-6.2.69-9.268,1.21-1.919.325-3.824.7-5.723,1.119-.837.189-1.681.384-2.518.586-.4.1-.81.2-1.211.293q-2.232.742-3.8-1.952c.912-.9-.524-2.291-1.443-1.38Z" transform="translate(-34.06 -16.313)" fill="#3e965b"/>
      <path id="Path_416" data-name="Path 416" d="M234.094,182.6c-9.846-.364-20.482,2.18-26.966,9.761-5.076,5.928-7.968,16.1-2.593,22.775,5.777,7.158,18.447,5.9,26.089,2.844,8.084-3.254,16.93-9.962,19.359-18.357,3.028-10.483-6.8-18.409-17.045-18.526a.976.976,0,1,0,0,1.952c5.838.065,11.568,2.46,14.29,7.659,2.851,5.479.395,11.231-3.4,15.617-6.083,6.982-15.6,12.246-25.286,12.1-5.818-.085-12.248-1.991-14.051-7.861-1.483-4.757-.354-9.956,2.232-14.173,5.593-9.11,16.977-12.194,27.415-11.8a.976.976,0,1,0,0-1.952Z" transform="translate(-35.428 -11.016)" fill="#3e965b"/>
      <path id="Path_417" data-name="Path 417" d="M220.513,195.519a2.753,2.753,0,0,0-2.532.362,2.492,2.492,0,0,0-1.033,2.24c.2,2.538,3.13,3.254,5.328,3.1,1.9-.156,4.117-.826,3.45-3.1a2.958,2.958,0,0,0-1.66-1.835,4.007,4.007,0,0,0-1.919-.228c-.252,0-2.559.807-1.579-.163l-1.606-.2a1.561,1.561,0,0,1,.49,1.3.977.977,0,0,0,.516.835,1.068,1.068,0,0,0,1.015,0,1.41,1.41,0,0,1,1.415.215,1.267,1.267,0,0,1,.429,1.307.973.973,0,0,0,.6,1.127,1.054,1.054,0,0,0,1.264-.373c.68-1.171,1.5-3.5.483-4.724-.68-.826-1.994-.579-2.81-.1a9.742,9.742,0,0,0-1.4,1.152c-.823.7-1.361,1.022-1.055-.312.51-2.427,2.933-4.36,5.144-5.329l-1.5-1.1a20.261,20.261,0,0,1-4.117,7.711l1.742.69a4.337,4.337,0,0,1,2.776-4.236h-1l.531.833c-.2,1.23,1.769,1.757,1.967.514.259-1.607-.8-3.7-2.769-2.909a6.09,6.09,0,0,0-3.518,5.8,1.042,1.042,0,0,0,1.749.7,22.6,22.6,0,0,0,4.634-8.583.966.966,0,0,0-.377-1.019,1.073,1.073,0,0,0-1.127-.081,11.275,11.275,0,0,0-4.954,4.125c-.83,1.3-1.871,3.332-1.027,4.828a2.149,2.149,0,0,0,1.305.991,2.251,2.251,0,0,0,1.655-.19,7.915,7.915,0,0,0,1.708-1.3c.252-.215.531-.586.864-.651.3-.2.286-.085-.048.345a3.436,3.436,0,0,1-.592,1.9l1.864.748a3.172,3.172,0,0,0-1.154-3.365,3.529,3.529,0,0,0-3.684-.364l1.538.846a3.443,3.443,0,0,0-.769-2.3,1.039,1.039,0,0,0-.749-.467,1.064,1.064,0,0,0-.85.266,2.479,2.479,0,0,0,.068,3.781c.973.709,1.449,0,2.518-.163,3.627-.449,1.511,1.113.231,1.165a5.039,5.039,0,0,1-1.708-.117q-2.13-.69-.265-1.776c1.218.475,1.742-1.412.544-1.881Z" transform="translate(-31.625 -9.48)" fill="#3e965b"/>
      <path id="Path_418" data-name="Path 418" d="M220.509,197.64c.837,2.6-2.62,3.462-4.26,4.36a9.371,9.371,0,0,0-2.946,2.466c-1.715,2.2-2.354,5-2.919,7.633-.259,1.23,1.708,1.75,1.973.521A21.4,21.4,0,0,1,214.079,207c1.225-2.33,2.98-3.11,5.267-4.308s3.94-3.052,3.13-5.577c-.381-1.2-2.354-.683-1.967.521Z" transform="translate(-33.262 -8.034)" fill="#3e965b"/>
      <path id="Path_419" data-name="Path 419" d="M223.38,196.349a1.913,1.913,0,0,0-1.7,1.952c0,.774.538,1.269.905,1.887a14.6,14.6,0,0,1,1.973,4.106c.327,1.4.646,3.9-.116,5.206-1.409,2.414-3.953,1.952-6.124,1.952-2.041,0-3.62.651-3.552-2.069.041-1.529,1.157-3.078,2.041-4.282l-1.864-.234a32.576,32.576,0,0,1,.619,6.026c0,.9,1.449,1.406,1.9.488a36.642,36.642,0,0,0,2.593-6.859l-2.007-.26.354,4.945a.992.992,0,0,0,.757.922,1.049,1.049,0,0,0,1.141-.427,2.188,2.188,0,0,0,.51-.878c.068-.306-.558-2.369-.81-1.633l2,.26.143-4.7-2.041.26a9.316,9.316,0,0,1,.381,4.1c-.129,1.087,1.783,1.334,2.041.26l1.279-6.312-1.864.228a4.144,4.144,0,0,1,.347,2.811c-.15,1.249,1.892,1.236,2.041,0a6.593,6.593,0,0,0-.626-3.794,1.044,1.044,0,0,0-1.012-.464,1.015,1.015,0,0,0-.852.7l-1.286,6.312,2.007.26a10.2,10.2,0,0,0-.456-4.614,1.022,1.022,0,0,0-1.114-.7.993.993,0,0,0-.886.949l-.143,4.7a1.033,1.033,0,0,0,2.007.26l.109-.319a.959.959,0,0,0-.259-.95c-2.116-2.2-2.545,1.3-3.28,2.271l1.905.495-.354-4.945a1.035,1.035,0,0,0-2.007-.26,33.992,33.992,0,0,1-2.382,6.4l1.905.495a35.241,35.241,0,0,0-.68-6.546c-.177-.9-1.409-.859-1.864-.234-1.361,1.874-3.715,5.967-1.9,8.212,1.585,1.952,6.573,1.2,8.7,1.074,3.361-.182,4.579-2.219,4.947-5.251a12.309,12.309,0,0,0-.252-4.347c-.184-.768-2.041-5.635-2.6-5.538,1.293-.228.742-2.115-.544-1.887Z" transform="translate(-32.73 -8.052)" fill="#3e965b"/>
      <path id="Path_420" data-name="Path 420" d="M219.24,200.459l-5.573,7.034,1.762.983,4.083-5.648-1.864-.755-2.035,7.425a.973.973,0,0,0,.6,1.127,1.054,1.054,0,0,0,1.264-.373,34.349,34.349,0,0,1,3.11-4.184l-1.7-.95a10.5,10.5,0,0,1-2.565,4.509l1.708.95a8.423,8.423,0,0,1,.742-2.6c.524-1.126-1.136-2.121-1.762-.989a22.8,22.8,0,0,1-1.966,2.954l1.864.234.415-1.855-1.864-.234.3,1.627a1.007,1.007,0,0,0,.726.679,1.06,1.06,0,0,0,.982-.25,19.388,19.388,0,0,0,4.083-5.889h-1.756a8.516,8.516,0,0,1,.959,2.6c.245,1.171,1.871.735,2-.26a50.627,50.627,0,0,0,.449-6.572h-2.041v4.093c0,1.061,1.817,1.373,2.007.26a7.242,7.242,0,0,1,1-2.8h-1.79a4.2,4.2,0,0,1,.68,2.212,1.022,1.022,0,0,0,2.041,0l.259-1.3h-1.966c.2,1.152.946,7.639-1.715,6.878-.449-.1-.578-.078-.388.072l.606-1.236,1.422-2.883-1.905-.495c.123,1.34.252,3.254-.592,4.4a3.642,3.642,0,0,1-3.845.755A6.644,6.644,0,0,1,215.2,208.2l-1.395,1.3c1.13.787,2.96,2.72,4.416,2.831,1.109.085,2.041-.794,2.769-1.5a11.069,11.069,0,0,0,3.327-8.349,1.022,1.022,0,0,0-2.041,0v2.225a1.022,1.022,0,0,0,2.041,0v-5.46a1.022,1.022,0,0,0-2.041,0,22.427,22.427,0,0,1-.354,3.9l2.007.26a43,43,0,0,1-.225-4.679.992.992,0,0,0-.883-.954,1.022,1.022,0,0,0-1.118.694c-.306,1.243-.68,2.466-1.041,3.683l1.864-.234-.143-.521c-.1-1.243-2.137-1.249-2.041,0a3.452,3.452,0,0,0,.422,1.51,1.05,1.05,0,0,0,1.864-.234c.388-1.223.735-2.447,1.041-3.683l-2.007-.26a43.015,43.015,0,0,0,.225,4.679c.1,1,1.79,1.432,2,.26a25.751,25.751,0,0,0,.429-4.451h-2.041v5.46h2.041v-2.225h-2.041a9.138,9.138,0,0,1-2.484,6.689,8.2,8.2,0,0,1-.857.807c-.483.443-.925.377-1.313-.2a17,17,0,0,1-2.81-1.952c-.844-.579-2,.566-1.4,1.334,1.565,1.991,3.9,4.21,6.8,3.254,3.055-1.035,3.47-4.991,3.239-7.594-.075-.865-1.429-1.451-1.9-.488-.68,1.373-1.361,2.74-2.041,4.119a3.534,3.534,0,0,0-.612,1.718c.225,1.464,2.082,1.223,3.225,1.139,4.43-.319,3.729-6.325,3.219-9.344-.17-1-1.694-.846-1.967,0a5.52,5.52,0,0,0-.333,1.848h2.041a7.486,7.486,0,0,0-.96-3.2,1.052,1.052,0,0,0-1.762,0,9.222,9.222,0,0,0-1.211,3.254l2.041.26V200.01a1.022,1.022,0,0,0-2.041,0,50.638,50.638,0,0,1-.449,6.572l2.007-.26a10.863,10.863,0,0,0-1.164-3.045,1.052,1.052,0,0,0-1.762,0,17.753,17.753,0,0,1-3.763,5.492l1.708.429-.3-1.627c-.157-.865-1.436-.891-1.864-.234a4.127,4.127,0,0,0-.619,3.358c.17.924,1.395.826,1.864.234a22.731,22.731,0,0,0,1.967-2.948l-1.762-.989a10.742,10.742,0,0,0-.953,3.065c-.122.859.946,1.757,1.708.95a12.862,12.862,0,0,0,3.089-5.375,1.026,1.026,0,0,0-1.708-.95,37.359,37.359,0,0,0-3.4,4.555l1.864.755,2.075-7.4a.973.973,0,0,0-.6-1.127,1.054,1.054,0,0,0-1.264.373l-4.083,5.655c-.762,1.048.987,1.952,1.762.983l5.553-7.028c.789-1-.98-1.952-1.762-.989Z" transform="translate(-32.544 -7.775)" fill="#3e965b"/>
      <path id="Path_421" data-name="Path 421" d="M287.865,230.858c8.165-4.776,14.657-11.9,21.87-17.862,7.825-6.462,16.038-12.481,24.5-18.181,16.426-11.062,33.676-20.96,50.912-30.831a.952.952,0,0,0,.336-1.317,1.046,1.046,0,0,0-1.364-.369c-17.236,9.871-34.492,19.749-50.918,30.831-7.75,5.206-15.317,10.724-22.571,16.58-7.893,6.377-14.922,14.316-23.816,19.463a.987.987,0,0,0,1.028,1.685Z" transform="translate(-14.356 -14.69)" fill="#3e965b"/>
      <path id="Path_422" data-name="Path 422" d="M392,138.312c-8.846.859-18.372,3.013-23.816,10.411-4.7,6.364-4.6,17.465-.184,24,5.015,7.425,15.263,7.691,23.224,5.29s16.2-6.611,16.127-15.708c-.041-4.88-1.885-9.962-3.919-14.387-1.756-3.82-4.865-7.158-9.574-6.735-1.3.117-1.313,2.069,0,1.952,6.308-.56,8.336,6.6,9.833,11.127,1.361,4.223,2.62,9.221.483,13.418s-7.288,6.338-11.69,7.874c-4.763,1.653-10,2.661-14.97,1.3-9.853-2.635-12.575-14.576-9.737-23.048,3.266-9.761,14.834-12.63,24.258-13.541,1.293-.124,1.306-2.076,0-1.952Z" transform="translate(5.142 -19.329)" fill="#3e965b"/>
      <path id="Path_423" data-name="Path 423" d="M402.9,201.516c-8.846.859-18.372,3.013-23.816,10.411-4.7,6.364-4.6,17.465-.184,24,5.015,7.425,15.263,7.691,23.224,5.29s16.2-6.611,16.127-15.708c-.041-4.88-1.885-9.962-3.919-14.387-1.756-3.82-4.865-7.158-9.574-6.735-1.3.117-1.313,2.069,0,1.952,6.308-.56,8.336,6.6,9.833,11.127,1.361,4.223,2.62,9.221.483,13.418s-7.288,6.338-11.69,7.874c-4.763,1.653-10,2.661-14.97,1.3-9.853-2.635-12.575-14.576-9.737-23.048,3.266-9.761,14.834-12.63,24.258-13.541,1.293-.124,1.306-2.076,0-1.952Z" transform="translate(7.854 -7.049)" fill="#3e965b"/>
      <path id="Path_424" data-name="Path 424" d="M375.917,159.641l6.444,7.028a1.061,1.061,0,0,0,.979.242,1.007,1.007,0,0,0,.722-.678c1.361-3.423,1.1-6.969,1.422-10.568a33.576,33.576,0,0,1,2.892-10.782A36.941,36.941,0,0,1,403.6,128.192a.987.987,0,0,0-1.027-1.685,38.89,38.89,0,0,0-15.4,16.177,36.23,36.23,0,0,0-3.4,10.327c-.68,4.223-.061,8.648-1.694,12.7l1.708-.436-6.41-7.015c-.871-.944-2.307.442-1.443,1.38Z" transform="translate(7.88 -21.65)" fill="#3e965b"/>
      <path id="Path_425" data-name="Path 425" d="M290.386,226.532q52.647-1.536,105.321-.651a.976.976,0,1,0,0-1.952q-52.66-.9-105.321.651A.976.976,0,1,0,290.386,226.532Z" transform="translate(-13.591 -2.757)" fill="#3e965b"/>
      <path id="Path_426" data-name="Path 426" d="M380.526,210.256A214.826,214.826,0,0,1,415,226.823a.987.987,0,0,0,1.027-1.685A217.123,217.123,0,0,0,381.1,208.375c-1.218-.462-1.749,1.425-.538,1.881Z" transform="translate(8.926 -5.729)" fill="#3e965b"/>
      <path id="Path_427" data-name="Path 427" d="M401.83,202.586a77.814,77.814,0,0,0-20.012,48.5c-.054,1.256,1.987,1.256,2.041,0a75.676,75.676,0,0,1,19.413-47.118c.851-.95-.585-2.336-1.443-1.379Z" transform="translate(9.409 -6.903)" fill="#3e965b"/>
      <path id="Path_428" data-name="Path 428" d="M180.129,220.631l76.054-.95,8.744-.111c1.572,0,3.144-.052,4.716-.059a3.652,3.652,0,0,1,3.661,3.9c-.1,4.555-3.1,4.392-7.016,4.555l-9.452.41L218.35,230c-6.893.293-13.793.651-20.686.878-6.219.182-18.046-1.757-15.283-10.411.381-1.2-1.585-1.718-1.973-.521-1.361,4.256,1.048,8.576,4.926,10.808,5.5,3.162,12.759,2.089,18.835,1.829l47.251-2.05,11.472-.488c2.94-.13,7.029.442,9.73-.865,3.171-1.529,3.729-7.6,1.728-10.158-1.027-1.3-2.47-1.419-4.083-1.477-4.232-.156-8.54.111-12.779.163l-23.557.3-53.831.651a.976.976,0,1,0,0,1.952Z" transform="translate(-41.037 -3.943)" fill="#3e965b"/>
      <g id="Michel" transform="translate(436.812 146.165)">
        <path id="Path_429" data-name="Path 429" d="M427.878,422.6c-1.715,1.028-3.674,1.607-5.444,2.512s-3.491,2.264-3.994,4.139a2.5,2.5,0,0,0,.088,1.77,3.57,3.57,0,0,0,1.905,1.445,30.127,30.127,0,0,0,22.87.247,30.972,30.972,0,0,1,3.947-1.5,26.775,26.775,0,0,1,5.056-.495,40.556,40.556,0,0,0,5.314-.651,4.791,4.791,0,0,0,2.409-.957,4.18,4.18,0,0,0,1.082-2.486,19.759,19.759,0,0,0-3.4-14.5,5,5,0,0,0-1.483-1.5,5.929,5.929,0,0,0-2.361-.605c-3.4-.4-6.968-1.126-10.4-1.2-2.463-.052-3.7,1.067-5.444,2.687C434.417,414.946,432.315,419.95,427.878,422.6Z" transform="translate(-418.319 -112.936)" fill="#323444"/>
        <path id="Path_430" data-name="Path 430" d="M466.2,422.167c0,3.189.4,6.566,2.422,9.11a12.432,12.432,0,0,0,3.307,2.766c4.273,2.6,9.935,3.559,14.439,1.353a4.246,4.246,0,0,0,1.8-1.445c.68-1.132.32-2.544-.061-3.794l-6.519-21.6c-4.212.618-10.4,1.054-14.147,3.1C464.727,413.129,466.2,419.317,466.2,422.167Z" transform="translate(-406.501 -112.987)" fill="#323444"/>
        <path id="Path_431" data-name="Path 431" d="M423.575,309.523c-.395,1.191-1.824,1.744-2.606,2.746a5.014,5.014,0,0,0-.49,4.243,11.049,11.049,0,0,0,2.987,5.629,7.253,7.253,0,0,0,6.124,1.991,4.967,4.967,0,0,0,4.158-4.379,7.983,7.983,0,0,0-.64-2.818L428.468,304.1a.653.653,0,0,0-.327-.436.707.707,0,0,0-.51.085c-1.1.495-3.293,1.015-3.933,2.1S424.038,308.345,423.575,309.523Z" transform="translate(-417.84 -133.368)" fill="#a16867"/>
        <path id="Path_432" data-name="Path 432" d="M421.173,309.757c1.694-.254,3.178-1.2,4.763-1.828s3.572-.866,4.906.176c.381.3.749.709,1.245.7a45.126,45.126,0,0,0-3.048-9.266.724.724,0,0,0-.265-.358.8.8,0,0,0-.578,0l-4.579,1.145c-1.694.423-1.892.293-1.762,1.887C421.887,302.925,422.268,309.757,421.173,309.757Z" transform="translate(-417.608 -134.247)" fill="#323444"/>
        <path id="Path_433" data-name="Path 433" d="M421.315,230.483a5.938,5.938,0,0,0-.68,3.429,111.556,111.556,0,0,0,.953,17.251c.211,1.367.476,2.733.612,4.113a45.373,45.373,0,0,1,.1,5.772l-.68,25.053c-.082,3.065-.245,6.357-2.225,8.765a4.057,4.057,0,0,0-.8,2.779c.517,6.286,1.606,12.52,2.688,18.734a12.6,12.6,0,0,1,10.983.5,111.036,111.036,0,0,0,5.641-31.885c.157-5.329-.082-10.691.776-15.956,1.436-8.863.851-17.953-.2-26.868-.333-2.824-1.041-5.733-2.933-7.919a12.7,12.7,0,0,0-6.8-3.748C426.221,229.871,423.969,230.522,421.315,230.483Z" transform="translate(-418.254 -147.634)" fill="#5b5583"/>
        <path id="Path_434" data-name="Path 434" d="M421.315,230.483a5.938,5.938,0,0,0-.68,3.429,111.556,111.556,0,0,0,.953,17.251c.211,1.367.476,2.733.612,4.113a45.373,45.373,0,0,1,.1,5.772l-.68,25.053c-.082,3.065-.245,6.357-2.225,8.765a4.057,4.057,0,0,0-.8,2.779c.517,6.286,1.606,12.52,2.688,18.734a12.6,12.6,0,0,1,10.983.5,111.036,111.036,0,0,0,5.641-31.885c.157-5.329-.082-10.691.776-15.956,1.436-8.863.851-17.953-.2-26.868-.333-2.824-1.041-5.733-2.933-7.919a12.7,12.7,0,0,0-6.8-3.748C426.221,229.871,423.969,230.522,421.315,230.483Z" transform="translate(-418.254 -147.634)" opacity="0.1"/>
        <path id="Path_435" data-name="Path 435" d="M427.871,292.7a110.279,110.279,0,0,0,7.158,66.529,17.492,17.492,0,0,1,1.66,4.919c.374,3.189-1.164,6.253-2.041,9.338-2.041,7.015-.864,14.485.442,21.662q.817,4.49,1.681,8.973c.565,2.915,1.109,6.084-.306,8.726,1.218,4.854,1.939,9.663,3.157,14.517a2.645,2.645,0,0,1,.116,1.191,3.526,3.526,0,0,1-1.245,1.594,6.907,6.907,0,0,0-1.9,6.813c3.11-2.134,7.444-1.386,11,0s7.049,3.254,10.887,3.254c-.558-4.308-1.1-8.83.565-12.871.966-2.343,2.667-4.555,2.62-7.06-.048-2.245-1.483-4.249-1.83-6.468a15.663,15.663,0,0,1,.163-4.139c.912-7.965-.122-16.008-1.157-23.959a13.8,13.8,0,0,0-1.143-4.555,6.559,6.559,0,0,1-1.191-2.883c0-1.217,1.027-2.206,1.409-3.364.68-2.134-.572-5.037,1.313-6.357,4.967-3.488,3.062-11.817,2.953-17.706q-.129-7.62-.68-15.227a62.243,62.243,0,0,1,3.756,26.25c-.218,2.915-.619,5.98.572,8.674.912,2.069,2.722,3.774,3.212,5.967a23.9,23.9,0,0,1,.157,4.132,4.194,4.194,0,0,0,1.8,3.579c.1,6.273.68,12.982.783,19.255a45.474,45.474,0,0,0,.817,9.566,11.7,11.7,0,0,1,.5,3.084,12.447,12.447,0,0,1-1.075,3.794,20.984,20.984,0,0,0,3.4,20.075c1.606-2.726,4.954-4.171,8.22-4.4a31.077,31.077,0,0,1,9.656,1.353,17.42,17.42,0,0,1,2.259-11,8.825,8.825,0,0,0,1.191-2.447c.367-1.653-.49-3.3-.953-4.933-.755-2.6-.49-5.407-.313-8.127a123.064,123.064,0,0,0-1.259-27.278,22.279,22.279,0,0,0-1.3-5.206c-.245-.6-.544-1.171-.749-1.776a13.444,13.444,0,0,1-.544-3.332l-.782-10.411c-.551-7.295,1.953-14.5,3.7-21.617.783-3.189,1.633-6.37,2.157-9.611.714-4.412.83-8.921,1.878-13.275.939-3.9,2.633-7.711,2.987-11.713.544-6.2-2.15-12.194-4.763-17.882-1.089-2.343-5.206-2.108-7.852-2.525-18.774-2.948-38.548-2.967-56.253,3.677a14.031,14.031,0,0,0-4.838,3.2Z" transform="translate(-416.495 -137.199)" fill="#3c354c"/>
        <path id="Path_436" data-name="Path 436" d="M438.817,195.441l2.082,7.744a19.867,19.867,0,0,1,.932,5.473,3.9,3.9,0,0,1-.456,1.952,4.759,4.759,0,0,1-1.293,1.262c-1.422,1.035-2.409,3.449-4.035,4.165.837,1.393,1.994.488,3.5,1.184,2.661,1.236,5.1,3.013,7.982,3.625a18.581,18.581,0,0,0,8.281-.651,29.2,29.2,0,0,0,10.724-4.77c3.083-2.4,4.838-4.522,4.824-8.316-3.4.384-6.43-2.9-7.934-5.856a15.407,15.407,0,0,1-1.143-3.507l-1.824-7.672c-1.987.416-3.606,1.776-5.5,2.486a20.834,20.834,0,0,1-6.253.865,70.281,70.281,0,0,0-11.132,1.38c-.5.1-1.136.4-1.014.872" transform="translate(-413.907 -155.436)" fill="#885554"/>
        <ellipse id="Ellipse_49" data-name="Ellipse 49" cx="18.018" cy="17.231" rx="18.018" ry="17.231" transform="translate(15.833 9.812)" fill="#a16867"/>
        <path id="Path_438" data-name="Path 438" d="M453.566,209.487a15.7,15.7,0,0,1,4.083-5.206c2.538-2.128,6.008-3.852,6.607-7.028l5.5,6.123a2.822,2.822,0,0,1,.68,1,2.442,2.442,0,0,1-.517,2.024c-1.361,2.076-3.5,3.559-5.532,5.063a165.932,165.932,0,0,0-13.33,11.244,1.373,1.373,0,0,1-.714.416,1.33,1.33,0,0,1-.742-.2,30.723,30.723,0,0,1-9.506-7.392,1.022,1.022,0,0,0-.762-.469,1,1,0,0,0-.51.254c-1.83,1.432-3.831,3.143-6.178,2.922a13.867,13.867,0,0,0,5.4-9.11,16.558,16.558,0,0,1,.776-3.559,3.817,3.817,0,0,1,2.654-2.408c-1.483,2.167-.47,5.238,1.524,6.989a15.315,15.315,0,0,0,6.75,3.13C452.062,213.7,452.743,211.192,453.566,209.487Z" transform="translate(-414.754 -154.041)" fill="#323444"/>
        <path id="Path_439" data-name="Path 439" d="M432.314,294.8c2.565.605,4.995,1.633,7.485,2.395a37.324,37.324,0,0,0,14.051,1.412,7.829,7.829,0,0,0,4.083-1.243c.32-.247.612-.54.953-.768a6.836,6.836,0,0,1,1.83-.722c6.24-1.868,11.466-5.9,16.535-9.839.163-.13.347-.293.333-.5a.642.642,0,0,0-.2-.371l-2.667-2.928c-7,1.139-14.16.709-21.257.54a32.265,32.265,0,0,0-4.369.111c-1.4.156-2.783.495-4.164.781-5.246,1.093-10.608,1.51-15.923,2.225a2.539,2.539,0,0,0-1.055.312,2.312,2.312,0,0,0-.565.6l-1.864,2.505a7.769,7.769,0,0,0-1.565,2.87c-.435,1.952.476,2.6,2.212,2.349A16.875,16.875,0,0,1,432.314,294.8Z" transform="translate(-416.944 -137.529)" fill="#323444"/>
        <path id="Path_440" data-name="Path 440" d="M454.132,218.724a32.987,32.987,0,0,0-7.016-5.238,10.208,10.208,0,0,0-3.4-1.3,4.392,4.392,0,0,0-3.484.82c-.606.514-.987,1.23-1.572,1.77a7.92,7.92,0,0,1-2.49,1.347,44.739,44.739,0,0,0-8.751,4.77,19.764,19.764,0,0,0-3.967,3.5c-3.082,3.774-3.545,8.908-3.464,13.7.061,3.332,3.4,5.8,5.7,8.3a61.258,61.258,0,0,1,5.838,7.809c1.238,1.874,2.531,3.9,2.375,6.136-.129,1.829-1.245,3.546-1.068,5.368.061.651.279,1.249.34,1.881.122,1.3-.415,2.6-.551,3.9-.184,1.842.442,3.67.476,5.525a16.847,16.847,0,0,1-.5,3.768c-1.306,5.948-2.946,11.928-2.613,18l-3.77.651a2.966,2.966,0,0,1,.923,2.607,3.052,3.052,0,0,1-1.651,2.254c5.886,1.881,12.248.931,18.488.924,5.165,0,10.309.651,15.467.56s10.479-.983,14.732-3.774c1.157-.755,2.218-1.64,3.436-2.3a17.5,17.5,0,0,1,5.205-1.627,53.951,53.951,0,0,1,10.207-.872c1.674,0,3.5.065,4.831-.9,1.47-1.067,1.844-3,2.041-4.75.2-1.848.32-3.7.354-5.557a22.935,22.935,0,0,0-.238-4.321,27.272,27.272,0,0,0-.8-3.1l-2.565-8.641c-1.061-3.566.415-7.477.728-11.173a2.713,2.713,0,0,0-.612-2.447c-.252-.2-.6-.338-.681-.651a1.073,1.073,0,0,1,.163-.872,48.19,48.19,0,0,1,5.267-7.249,147.615,147.615,0,0,0,8.71-12.8A40.374,40.374,0,0,0,498.695,210.1a12.452,12.452,0,0,0-4.824-3.4,14.89,14.89,0,0,0-3.838-.592c-5.335-.345-10.887-.651-15.535-3.215a3.028,3.028,0,0,0-1.109-.449c-1.027-.111-1.776.859-2.443,1.627-1.715,1.952-4.239,3.071-6.457,4.509C460.351,211.261,457.119,214.957,454.132,218.724Z" transform="translate(-417.906 -153.035)" fill="#5b5583"/>
        <path id="Path_441" data-name="Path 441" d="M497.9,232.923c1.061,3.215.959,6.65,1.306,10a37.393,37.393,0,0,0,1.109,5.993,9.332,9.332,0,0,0,1.293,3.052,13.453,13.453,0,0,1,1.878,2.525,5.849,5.849,0,0,1,.279,2.03l.082,4.49A15.505,15.505,0,0,1,502.735,268l-2.933,8.531c-1.585,4.62-3.212,9.312-6.07,13.333a3.955,3.955,0,0,1-1.749,1.568,8.855,8.855,0,0,1-1.762.26,4.4,4.4,0,0,0-3.736,4.21,10.107,10.107,0,0,0-2.511-2.453l-5.968-4.555a25.663,25.663,0,0,0-6.648-4.119,17.451,17.451,0,0,0,12.534-14.485,6.273,6.273,0,0,1,.68-2.85c.5-.768,1.415-1.354,1.483-2.258.082-1.139-1.266-2-1.266-3.136,0-.755.585-1.38.844-2.089a5.023,5.023,0,0,0,0-2.674l-.823-4.373a3.236,3.236,0,0,0-.408-1.249,8.238,8.238,0,0,0-1.021-1.028c-1.415-1.516-.789-3.9,0-5.772a54.593,54.593,0,0,1,6.954-11.667,39.936,39.936,0,0,0,2.769-3.787c.721-1.2.884-2.857,1.647-3.9C495.733,227.964,497.06,230.391,497.9,232.923Z" transform="translate(-405.118 -148.552)" fill="#5b5583"/>
        <path id="Path_442" data-name="Path 442" d="M471.959,275.456a3.2,3.2,0,0,0-.776.781,6.88,6.88,0,0,1-3.082,2.1c.68.469,1.3.931,1.939,1.406a83.475,83.475,0,0,1,12.929,11.823c.429-1.464,2.994-1.36,3.62-2.759a2.59,2.59,0,0,0,.136-1.249,36.551,36.551,0,0,0-.98-6.507,7.2,7.2,0,0,0-1.361-3.045,8.267,8.267,0,0,0-3.851-2.082C478.39,275.208,474.137,274.2,471.959,275.456Z" transform="translate(-405.929 -138.962)" fill="#323444"/>
        <path id="Path_443" data-name="Path 443" d="M466.572,279.98c-2.041,1.445-3.831,3.254-6.124,4.243-1.619.7-3.464,1.009-4.879,2.056a4.9,4.9,0,0,0,4.627,2.395,11.313,11.313,0,0,0,5.178-1.815c1.218-.716,2.647-1.549,3.974-1.048.2.989-.68,1.92-.68,2.922s.871,1.731,1.728,2.258c4.083,2.518,9.336,2.31,14.2,2.017a1.321,1.321,0,0,0,.783-.221,1.145,1.145,0,0,0,.293-.859c.061-1.028.089-2.05.1-3.078a4.334,4.334,0,0,0-1.973-4.347,55.6,55.6,0,0,0-8.506-5.759C472.3,277.084,469.26,278.067,466.572,279.98Z" transform="translate(-409.048 -138.372)" fill="#a16867"/>
        <path id="Path_444" data-name="Path 444" d="M451.476,177.69c-3.021.345-5.219,2.6-4.913,5.056s3,4.145,6.022,3.794,5.219-2.6,4.913-5.05S454.5,177.345,451.476,177.69Zm1.027,8.173c-2.558.293-4.838-1.145-5.1-3.215s1.606-3.982,4.158-4.275,4.838,1.145,5.1,3.215-1.606,3.982-4.158,4.275Z" transform="translate(-411.297 -157.85)" fill="#3c354c"/>
        <path id="Path_445" data-name="Path 445" d="M439.685,179.107c-3.021.345-5.219,2.6-4.913,5.05s3,4.145,6.022,3.8,5.219-2.6,4.913-5.056S442.707,178.762,439.685,179.107Zm1.027,8.166c-2.559.293-4.838-1.145-5.1-3.208s1.6-3.982,4.158-4.282,4.838,1.145,5.1,3.215-1.606,3.982-4.158,4.275Z" transform="translate(-414.231 -157.575)" fill="#3c354c"/>
        <path id="Path_446" data-name="Path 446" d="M361.446,141.466l6.566,1.34-.646,1.653-6.192-1.737Z" transform="translate(-346.926 -118.679)" fill="#3c354c"/>
        <path id="Path_447" data-name="Path 447" d="M391.906,137.946l-6.056,2.792,1.041,1.458,5.586-3.091Z" transform="translate(-340.785 -119.363)" fill="#3c354c"/>
        <path id="Path_448" data-name="Path 448" d="M374.484,142.326l4.607-.527-.238,1.093-3.953.254Z" transform="translate(-343.613 -118.614)" fill="#3c354c"/>
        <path id="Path_449" data-name="Path 449" d="M438.113,183.3a6.736,6.736,0,0,0,.68-2.844,5.839,5.839,0,0,1,.313-1.731,4.88,4.88,0,0,1,1.483-1.815,14.124,14.124,0,0,1,8.165-2.727,19.6,19.6,0,0,1,9.445,1.952,7.333,7.333,0,0,1,2.348,1.666c.953,1.113,1.157,2.551,2.116,3.651a5.72,5.72,0,0,0,5.212,1.562c.333-1.132-.1-2.33.068-3.488a16.4,16.4,0,0,1,1.082-2.889c1.055-2.974-.483-6.423-3.654-8.2a14.213,14.213,0,0,1-3.253-1.952,14.57,14.57,0,0,1-1.6-2.668c-1.517-2.323-5.444-3.41-8.431-2.336-.939.338-1.769.852-2.722,1.217a23.346,23.346,0,0,1-5.729,1.054,18.19,18.19,0,0,0-5.552,1.393,6.055,6.055,0,0,0-3.477,3.592c-.184.7-.143,1.432-.327,2.128-.939,3.533-7,5.251-7.342,8.856a5.053,5.053,0,0,0,1.545,3.611c.64.722,2.171,2.655,3.253,2.935s1.905-.7,2.94-1.041C436.31,184.743,437.3,184.639,438.113,183.3Z" transform="translate(-416.176 -161.071)" fill="#cbceda"/>
      </g>
      <path id="Path_450" data-name="Path 450" d="M497.349,371.591c0,32.692,21.448,59.15,47.952,59.15" transform="translate(38.162 25.996)" fill="#46455b"/>
      <path id="Path_451" data-name="Path 451" d="M535.745,430.855c0-33.063,23.938-59.814,53.518-59.814" transform="translate(47.718 25.89)" fill="#3e965b"/>
      <path id="Path_452" data-name="Path 452" d="M511.265,374.076c0,31.059,13.677,56.189,30.573,56.189" transform="translate(41.625 26.479)" fill="#3e965b"/>
      <path id="Path_453" data-name="Path 453" d="M535.745,433.558c0-42.245,27.667-76.433,61.853-76.433" transform="translate(47.718 23.186)" fill="#46455b"/>
      <ellipse id="Ellipse_50" data-name="Ellipse 50" cx="11.922" cy="1.926" rx="11.922" ry="1.926" transform="translate(569.466 464.188)" fill="#3e965b" opacity="0.1"/>
      <path id="Path_454" data-name="Path 454" d="M527.67,422.044s6.8-.2,8.846-1.594,10.459-3.065,10.969-.826,10.207,11.134,2.538,11.192-17.842-1.145-19.883-2.336S527.67,422.044,527.67,422.044Z" transform="translate(45.708 35.116)" fill="#a8a8a8"/>
      <path id="Path_455" data-name="Path 455" d="M550.166,429.464c-7.675.059-17.835-1.145-19.883-2.336-1.558-.9-2.177-4.165-2.388-5.661h-.225s.429,5.245,2.477,6.436,12.207,2.395,19.883,2.336c2.218,0,2.98-.774,2.939-1.887C552.663,429.028,551.853,429.451,550.166,429.464Z" transform="translate(45.708 35.687)" opacity="0.2"/>
      <path id="Path_456" data-name="Path 456" d="M80.807,387.588c0,26.029,17.059,47.06,38.146,47.06" transform="translate(-65.504 29.105)" fill="#46455b"/>
      <path id="Path_457" data-name="Path 457" d="M111.352,434.734c0-26.3,19.053-47.587,42.576-47.587" transform="translate(-57.902 29.019)" fill="#3e965b"/>
      <path id="Path_458" data-name="Path 458" d="M91.873,389.571c0,24.727,10.887,44.7,24.326,44.7" transform="translate(-62.75 29.49)" fill="#3e965b"/>
      <path id="Path_459" data-name="Path 459" d="M111.352,436.885c0-33.61,22.013-60.809,49.211-60.809" transform="translate(-57.902 26.868)" fill="#46455b"/>
      <ellipse id="Ellipse_51" data-name="Ellipse 51" cx="9.486" cy="1.536" rx="9.486" ry="1.536" transform="translate(42.311 469.674)" fill="#3e965b" opacity="0.1"/>
      <path id="Path_460" data-name="Path 460" d="M104.928,427.731s5.41-.163,7.036-1.3,8.329-2.44,8.73-.651,8.131,8.856,2.041,8.9-14.194-.911-15.821-1.855S104.928,427.731,104.928,427.731Z" transform="translate(-59.501 36.353)" fill="#a8a8a8"/>
      <path id="Path_461" data-name="Path 461" d="M122.824,433.65c-6.124.046-14.194-.911-15.821-1.861-1.238-.716-1.728-3.312-1.9-4.5h-.177s.34,4.171,1.967,5.121,9.717,1.9,15.821,1.855c1.762,0,2.375-.612,2.341-1.5C124.811,433.279,124.137,433.611,122.824,433.65Z" transform="translate(-59.501 36.818)" opacity="0.2"/>
    </g>
  </g>
</svg>
