<svg xmlns="http://www.w3.org/2000/svg" xmlns:xlink="http://www.w3.org/1999/xlink" width="599" height="525" viewBox="0 0 599 525">
  <defs>
    <clipPath id="clip-path">
      <rect id="Rectangle_320" data-name="Rectangle 320" width="599" height="525" transform="translate(12176 1862)" fill="#fff" stroke="#707070" stroke-width="1"/>
    </clipPath>
  </defs>
  <g id="Mask_Group_4" data-name="Mask Group 4" transform="translate(-12176 -1862)" clip-path="url(#clip-path)">
    <g id="undraw_hire_te5y_1_" data-name="undraw_hire_te5y (1)" transform="translate(12176 1954.737)">
      <ellipse id="Ellipse_33" data-name="Ellipse 33" cx="217.95" cy="18.328" rx="217.95" ry="18.328" transform="translate(162.809 302.827)" fill="#3f3d56"/>
      <rect id="Rectangle_321" data-name="Rectangle 321" width="236.569" height="149.754" transform="translate(510.797 149.754) rotate(180)" fill="#65609f" opacity="0.3"/>
      <rect id="Rectangle_322" data-name="Rectangle 322" width="70.048" height="71.349" transform="translate(425.649 13.721)" fill="#f2f2f2"/>
      <rect id="Rectangle_323" data-name="Rectangle 323" width="67.531" height="4.312" transform="translate(382.446 18.033) rotate(180)" fill="#f2f2f2"/>
      <rect id="Rectangle_324" data-name="Rectangle 324" width="23.909" height="4.312" transform="translate(449.558 100.359) rotate(180)" fill="#f2f2f2"/>
      <rect id="Rectangle_325" data-name="Rectangle 325" width="68.37" height="4.312" transform="translate(494.858 108.199) rotate(180)" fill="#f2f2f2"/>
      <rect id="Rectangle_326" data-name="Rectangle 326" width="97.312" height="4.312" transform="translate(398.385 33.714) rotate(180)" fill="#f2f2f2"/>
      <rect id="Rectangle_327" data-name="Rectangle 327" width="97.312" height="4.312" transform="translate(398.385 45.867) rotate(180)" fill="#f2f2f2"/>
      <rect id="Rectangle_328" data-name="Rectangle 328" width="97.312" height="4.312" transform="translate(398.385 58.02) rotate(180)" fill="#f2f2f2"/>
      <rect id="Rectangle_329" data-name="Rectangle 329" width="97.312" height="4.312" transform="translate(398.385 70.173) rotate(180)" fill="#f2f2f2"/>
      <rect id="Rectangle_330" data-name="Rectangle 330" width="97.312" height="4.312" transform="translate(398.385 82.325) rotate(180)" fill="#f2f2f2"/>
      <rect id="Rectangle_331" data-name="Rectangle 331" width="97.312" height="4.312" transform="translate(398.385 94.478) rotate(180)" fill="#f2f2f2"/>
      <rect id="Rectangle_332" data-name="Rectangle 332" width="97.312" height="4.312" transform="translate(398.385 106.631) rotate(180)" fill="#f2f2f2"/>
      <path id="Path_266" data-name="Path 266" d="M154.442,46.036a12.749,12.749,0,0,1,3.392-1.59,91.693,91.693,0,0,1,23.9-4.862c7.106-.471,14.808.088,20.358,4.263a6.688,6.688,0,0,1,2.065,2.249,7.725,7.725,0,0,1,.261,4.583,4.91,4.91,0,0,1-.476,1.725c-.747,1.329-2.586,1.795-4.183,1.635s-3.1-.791-4.671-1.084a22.3,22.3,0,0,0-2.95-.281l-9.881-.5c-6.144-.311-12.369-.617-18.4.542a19.2,19.2,0,0,0-5.315,1.712c-1.377.722-2.3,1.759-3.581.425C152.719,52.51,151.477,48.2,154.442,46.036Z" transform="translate(281.727 8.426)" fill="#2f2e41"/>
      <path id="Path_267" data-name="Path 267" d="M160.081,44.609s13.29-5.568,18.331.857-2.75,3.855-2.75,3.855l-8.707,2.57-9.624-1.713Z" transform="translate(291.399 13.937)" fill="#f2f2f2"/>
      <path id="Path_268" data-name="Path 268" d="M158.445,44.254s1.833,8.138.458,10.279,7.791,5.14,7.791,5.14l8.707-3.426s-2.291-13.278,0-15.848Z" transform="translate(293.722 10.223)" fill="#ffb9b9"/>
      <path id="Path_269" data-name="Path 269" d="M158.445,44.254s1.833,8.138.458,10.279,7.791,5.14,7.791,5.14l8.707-3.426s-2.291-13.278,0-15.848Z" transform="translate(293.722 10.223)" opacity="0.1"/>
      <path id="Path_270" data-name="Path 270" d="M183.863,47.309c-.006,7.094-6.158,12.844-13.748,12.849a14.331,14.331,0,0,1-2.443-.206c-7.159-1.208-12.072-7.42-11.207-14.171s7.207-11.7,14.469-11.3,12.929,6.027,12.929,12.827Z" transform="translate(289.385 -0.969)" fill="#ffb9b9"/>
      <path id="Path_271" data-name="Path 271" d="M197.6,70.2H153.759l.994-4.034,4.3-17.527,4.975-3.14,0,0,2.336-1.478,1.162-.733s.688.294,1.481.694c.231.121.466.247.7.38,0,0,0,0,0,0a8.247,8.247,0,0,1,1.082.7c.063.055.117.1.172.153.872.815,3.418,5.143,7.63,2.928a6.51,6.51,0,0,0,.617-.361,30.283,30.283,0,0,0,3.133-2.325c.885-.757,1.46-1.341,1.93-1.745a3.043,3.043,0,0,1,.713-.494,1.433,1.433,0,0,1,.642-.145c1.376,0,3.209,2.568,3.209,2.568l.055.149,0,.012,5.784,16.23Z" transform="translate(283.946 15.261)" fill="#f2f2f2"/>
      <path id="Path_272" data-name="Path 272" d="M159.286,71.96h13.288a28.258,28.258,0,0,0-.239-4.3c-.407-2.866-1.405-5.626-2.034-8.456a33.327,33.327,0,0,1-.8-7.543c0-.349.013-.7.046-1.055a4.6,4.6,0,0,1,.726-2.289c.315-.451.747-.835,1.082-1.266a2.886,2.886,0,0,0,.306-.451v0a2.527,2.527,0,0,0,.113-.239,1.828,1.828,0,0,0,.126-.584c.075-1.294-1.179-2.54-2.534-3.073a10.1,10.1,0,0,0-5.935-.223,29.4,29.4,0,0,0-5.579,2.133c-.6.274-1.2.557-1.77.87a8.754,8.754,0,0,0-1.875,1.333,10.787,10.787,0,0,0-2.554,5.147,10.208,10.208,0,0,0-.482,4.391c0,.047.017.1.025.145.5,2.442,2.63,4.277,3.767,6.527,1.317,2.611,1.229,5.653.7,8.5-.025.145-.055.29-.084.435h3.7Z" transform="translate(278.418 13.501)" fill="#2f2e41"/>
      <path id="Path_273" data-name="Path 273" d="M188.509,58.211a91.6,91.6,0,0,0-3.62,15.685H165.947Q165.2,72,164.466,70.105a27.1,27.1,0,0,1-1.011-2.917,13.091,13.091,0,0,1-.424-3.513c0-.282.013-.568.038-.851a.012.012,0,0,0,0-.016,13.272,13.272,0,0,1,1.095-4.34,15.787,15.787,0,0,1,.965-1.831c.881-1.49,1.946-2.893,2.894-4.352a19.519,19.519,0,0,0,1.539-2.791.014.014,0,0,1,0-.012,9.461,9.461,0,0,0,.868-3.9c-.029-1.729-3.158-4.744.243-4.453,4.643.392,8.632,2.889,12.269,5.735.969.761,1.917,1.548,2.844,2.325,1.435,1.207,2.949,2.525,3.381,4.285a4.286,4.286,0,0,1,.122.855A11.06,11.06,0,0,1,188.509,58.211Z" transform="translate(303.287 11.565)" fill="#2f2e41"/>
      <path id="Path_274" data-name="Path 274" d="M172.615,48.956a9.5,9.5,0,0,0-2.151-3.241,8.2,8.2,0,0,0-3.285-1.556,19.14,19.14,0,0,0-4.819-.646c-1.941-.011-4.191.475-5.015,2.118-.655,1.3-.147,2.848.512,4.151a4.1,4.1,0,0,0,1.359,1.715,7.967,7.967,0,0,0,2.912.689,13.9,13.9,0,0,1,4.3,1.823l3.4,1.92,5.839,3.3c-.154-.087-.1-3.829-.279-4.443A41.794,41.794,0,0,0,172.615,48.956Z" transform="translate(290.79 16.093)" fill="#ffb9b9"/>
      <path id="Path_275" data-name="Path 275" d="M186.528,44.98a3.3,3.3,0,0,0-1.514-1.846,7.024,7.024,0,0,0-.32-2.437c-.833-2.3-2.8-2.169-4.666-3.186-.807-.441-.758-.831-1.178-1.556a5.982,5.982,0,0,0-2.381-2.271,8.89,8.89,0,0,0-3.867-1.533c-2.968-.189-5.244,2.42-8.081,3.258-1.25.369-2.594.384-3.851.733s-2.511,1.182-2.7,2.4c-.087.56.066,1.135-.022,1.694-.174,1.113-1.219,1.892-1.918,2.807a6.53,6.53,0,0,0-.133,7.085,9.9,9.9,0,0,0,.892,1.3,7.636,7.636,0,0,0,.941,2.979,15.409,15.409,0,0,0,5.587,5.215,11.571,11.571,0,0,1-.33-2.224,1.442,1.442,0,0,1,.1-.737c.247-.484.9-.612,1.4-.877a3.235,3.235,0,0,0,1.468-2.873c.03-1.11-.222-2.222-.1-3.326a1.772,1.772,0,0,1,.666-1.337,2.43,2.43,0,0,1,1.255-.28c2.116-.081,4.328-.117,6.195-1.052A9.444,9.444,0,0,1,175.906,46a4.2,4.2,0,0,1,4.122,1.925c.914,1.272,1.37,2.786,2.214,4.1a4.492,4.492,0,0,0,3.932,2.33.674.674,0,0,0,.487-.2.646.646,0,0,0,.09-.388l.091-5.827a8.257,8.257,0,0,0-.314-2.962Z" transform="translate(286.374 -5.337)" fill="#2f2e41"/>
      <path id="Path_276" data-name="Path 276" d="M160.846,59.121a67.972,67.972,0,0,1,.541,6.9H149.852v-9.06c.059-.22.122-.435.2-.651.721-2.078,2.236-3.818,3.548-5.626.063-.09.13-.18.193-.271A14.465,14.465,0,0,0,155.226,48c.189-.416.491-2.427.81-2.6,1.367-.741,2.479,2.427,2.668,3.132.671,2.513,1.254,5.049,1.695,7.609Q160.655,57.629,160.846,59.121Z" transform="translate(275.797 19.437)" fill="#2f2e41"/>
      <path id="Path_277" data-name="Path 277" d="M195.488,67.6h-26.48c-.227-.5-.449-1-.684-1.49a43.133,43.133,0,0,0-6.35-9.734,2.519,2.519,0,0,1-.784-1.454,1.167,1.167,0,0,1,.172-.655,4.6,4.6,0,0,1,2.332-1.447,8.134,8.134,0,0,0,2.424-1.427,4.858,4.858,0,0,0,1.4-1.933,4.013,4.013,0,0,0,.176-.666l.369.451c.3.369.6.733.906,1.1,2.936,3.524,6.162,7,10.218,9.087a17.857,17.857,0,0,0,3.339,1.329.932.932,0,0,0,.7,0,.784.784,0,0,0,.306-.525c.361-1.411.487-2.866.751-4.3a23.426,23.426,0,0,1,2.764-7.441c.751-1.305,3.192-6.076,4.74-3.07q.667,1.3,1.342,2.607c.281.553.566,1.1.851,1.654a9.742,9.742,0,0,1,1.38,5.763Q195.429,61.533,195.488,67.6Z" transform="translate(299.446 17.86)" fill="#2f2e41"/>
      <path id="Path_278" data-name="Path 278" d="M156.069,58.911h2.294l-1.3-4.034-1.875-5.814a17.742,17.742,0,0,1-.18,2.944,18.654,18.654,0,0,1-1.829,5.818c-.18.357-.373.717-.529,1.086h3.419Z" transform="translate(281.635 26.551)" opacity="0.1"/>
      <path id="Path_279" data-name="Path 279" d="M170.326,48.179a3.933,3.933,0,0,0,.219,2.545,24.06,24.06,0,0,1,1,7.439.259.259,0,0,1-.075.248.3.3,0,0,1-.263.077,3.847,3.847,0,0,1-2.987-.662Z" transform="translate(314.113 24.885)" opacity="0.1"/>
      <rect id="Rectangle_333" data-name="Rectangle 333" width="236.569" height="149.754" transform="translate(0 1.541)" fill="#a4d4bf" opacity="0.3"/>
      <rect id="Rectangle_334" data-name="Rectangle 334" width="70.048" height="71.349" transform="translate(15.1 15.262)" fill="#f2f2f2"/>
      <rect id="Rectangle_335" data-name="Rectangle 335" width="67.531" height="4.312" transform="translate(128.352 15.262)" fill="#f2f2f2"/>
      <rect id="Rectangle_336" data-name="Rectangle 336" width="23.909" height="4.312" transform="translate(15.939 97.588)" fill="#f2f2f2"/>
      <rect id="Rectangle_337" data-name="Rectangle 337" width="68.37" height="4.312" transform="translate(15.939 105.428)" fill="#f2f2f2"/>
      <rect id="Rectangle_338" data-name="Rectangle 338" width="97.312" height="4.312" transform="translate(112.413 30.943)" fill="#f2f2f2"/>
      <rect id="Rectangle_339" data-name="Rectangle 339" width="97.312" height="4.312" transform="translate(112.413 43.096)" fill="#f2f2f2"/>
      <rect id="Rectangle_340" data-name="Rectangle 340" width="97.312" height="4.312" transform="translate(112.413 55.249)" fill="#f2f2f2"/>
      <rect id="Rectangle_341" data-name="Rectangle 341" width="97.312" height="4.312" transform="translate(112.413 67.402)" fill="#f2f2f2"/>
      <rect id="Rectangle_342" data-name="Rectangle 342" width="97.312" height="4.312" transform="translate(112.413 79.554)" fill="#f2f2f2"/>
      <rect id="Rectangle_343" data-name="Rectangle 343" width="97.312" height="4.312" transform="translate(112.413 91.707)" fill="#f2f2f2"/>
      <rect id="Rectangle_344" data-name="Rectangle 344" width="97.312" height="4.312" transform="translate(112.413 103.86)" fill="#f2f2f2"/>
      <path id="Path_280" data-name="Path 280" d="M49.8,69.195H40.693q-1.051-2.64-1.867-5.347a10.426,10.426,0,0,0-2.97-5.657,10.567,10.567,0,0,1-1.279-1.623,7.188,7.188,0,0,1-.805-4.622,11.289,11.289,0,0,1,.235-1.309c.4-1.674,1.065-3.281,1.623-4.912a1.966,1.966,0,0,1,1.627-1.258,3.437,3.437,0,0,1,1.778.192,2.267,2.267,0,0,1,.357.173,5.134,5.134,0,0,1,1.925,2.752q2.85,7.151,5.7,14.3.554,1.388,1.107,2.783c.545,1.364,1.086,2.728,1.548,4.12C49.715,68.924,49.757,69.057,49.8,69.195Z" transform="translate(33.445 17.809)" fill="#d0cde1"/>
      <path id="Path_281" data-name="Path 281" d="M37.769,32.015c-2.264.715-4.315,2.386-4.779,4.577-.215,1.016-.083,2.071-.264,3.093-.419,2.369-2.409,4.178-4.244,5.859s-3.73,3.633-3.864,6.031c-.147,2.626,1.891,5.086,1.538,7.694-.41,3.031-3.835,4.994-4.681,7.945a7.242,7.242,0,0,0,1.267,5.832c2.172,3.315,5.884,5.565,9.838,6.772a43.681,43.681,0,0,0,12.323,1.5c5.064.05,10.562-.357,14.366-3.48a10.535,10.535,0,0,0,3.821-7c.361-3.618-1.254-7.357-.14-10.838.7-2.191,2.46-4.192,2.2-6.466-.257-2.223-2.334-3.8-3.759-5.595a22.159,22.159,0,0,1-2.93-5.609l-2.708-6.68a7.683,7.683,0,0,0-2.3-3.556c-2.221-1.613-5.792-1.3-8.388-.964C42.651,31.436,40.086,31.283,37.769,32.015Z" transform="translate(7.565 -7.755)" fill="#2f2e41"/>
      <path id="Path_282" data-name="Path 282" d="M27.727,39.849s.265,7.431-.53,8.174,3.18,5.7,3.18,5.7l7.156-.248,3.71-2.725-3.18-3.963s-1.325-6.44-.265-7.927S27.727,39.849,27.727,39.849Z" transform="translate(19.702 6.425)" fill="#a0616a"/>
      <path id="Path_283" data-name="Path 283" d="M27.727,39.849s.265,7.431-.53,8.174,3.18,5.7,3.18,5.7l7.156-.248,3.71-2.725-3.18-3.963s-1.325-6.44-.265-7.927S27.727,39.849,27.727,39.849Z" transform="translate(19.702 6.425)" opacity="0.1"/>
      <ellipse id="Ellipse_34" data-name="Ellipse 34" cx="9.541" cy="8.917" rx="9.541" ry="8.917" transform="translate(42.261 31.288)" fill="#a0616a"/>
      <path id="Path_284" data-name="Path 284" d="M51.6,75.884h7.735c.289-.49.562-1,.877-1.462v0a4.134,4.134,0,0,1,1.409-1.38,5.645,5.645,0,0,0,1.044-.584,2.471,2.471,0,0,0,.638-1.113,16.234,16.234,0,0,0,.872-4.806c.013-.549,0-1.106.034-1.654a6.526,6.526,0,0,1,.176-1.274,9.716,9.716,0,0,1,1.145-2.423q1.573-2.676,3.154-5.351a3.513,3.513,0,0,0,.214-1.568,3.692,3.692,0,0,0-.679-2.011c-.147-.247-.306-.494-.474-.733a16.493,16.493,0,0,0-2.248-2.681,18.3,18.3,0,0,0-6.4-4.05,3.829,3.829,0,0,1-.86-.392,3.4,3.4,0,0,1-.789-.882c-.839-1.18-1.862-2.509-3.377-2.434a2.208,2.208,0,0,0-1.6-.1,2.3,2.3,0,0,0-.235.071,15.3,15.3,0,0,0-1.682.819,8.282,8.282,0,0,1-4.53.768,1.621,1.621,0,0,1-.528-.125A2.682,2.682,0,0,1,45,42.143a2.954,2.954,0,0,0-2.781-.416,2.531,2.531,0,0,0-1.107.729c-.277.325-.47.717-.776,1.023-.793.792-2.1.823-3.259.819a32.161,32.161,0,0,0-7.16.615,14.026,14.026,0,0,0-5.637,2.548l0,0c-.227.18-.436.365-.646.561a4.487,4.487,0,0,0-1.116,1.49c-.319.768-.277,1.635-.566,2.415-.319.874-1.028,1.588-1.313,2.466A9.4,9.4,0,0,1,20.09,56.4c.017.012.029.024.046.035,1.527,1.254,2.831,2.9,4.362,4.144A8.445,8.445,0,0,1,26.713,62.9a3.681,3.681,0,0,1,.273.627,9.036,9.036,0,0,1,.227,2.282c.193,3.665,2.32,6.99,4.7,9.907.046.059.092.118.143.172Z" transform="translate(5.094 11.119)" fill="#d0cde1"/>
      <path id="Path_285" data-name="Path 285" d="M31.332,53.768q-.541,3.511-1.091,7.017a28.791,28.791,0,0,1-.747,3.716c-.218.757-.5,1.5-.7,2.254H17.876a9.153,9.153,0,0,1,.1-1.266,19.9,19.9,0,0,1,1.363-4.395q1.906-4.81,3.809-9.628c.541-1.368,1.007-2.8,1.6-4.156.1-.251.218-.5.34-.745.633-1.3,2.391-.768,3.691-.572a3.7,3.7,0,0,1,1.032.274,2.6,2.6,0,0,1,.969.855c1.233,1.705.965,3.96.646,6Q31.382,53.445,31.332,53.768Z" transform="translate(0.475 20.247)" fill="#d0cde1"/>
      <path id="Path_286" data-name="Path 286" d="M38.911,52.508c.017.055.2.639.495,1.462H30.3c4.513-.725,8.611-1.466,8.611-1.466Z" transform="translate(26.393 33.033)" fill="#2f2e41"/>
      <ellipse id="Ellipse_35" data-name="Ellipse 35" cx="10.336" cy="5.202" rx="10.336" ry="5.202" transform="translate(42.261 29.802)" fill="#2f2e41"/>
      <rect id="Rectangle_345" data-name="Rectangle 345" width="236.569" height="149.754" transform="translate(151.551 56.671)" fill="#49755f"/>
      <ellipse id="Ellipse_36" data-name="Ellipse 36" cx="27.684" cy="2.744" rx="27.684" ry="2.744" transform="translate(326.042 190.744)" opacity="0.1"/>
      <rect id="Rectangle_346" data-name="Rectangle 346" width="70.048" height="71.349" transform="translate(166.651 70.392)" fill="#f2f2f2"/>
      <path id="Path_287" data-name="Path 287" d="M77.822,73.692a1.058,1.058,0,0,0,1.205-.465C80,71.8,78.213,69.96,78.6,68.309c.309-1.323,1.917-2.107,2.246-3.426.319-1.281-.665-2.725,0-3.884a2.861,2.861,0,0,1,2.913-.988c1.089.159,2.123.607,3.224.669a16.785,16.785,0,0,0,4.3-.819c1.434-.3,3.183-.182,4.027.942,1.083,1.444-.016,3.454.362,5.181.3,1.372,1.528,2.508,1.555,3.908.009.5-1.39.1-1.316.589s-.587.059-.058,0a1,1,0,0,0,.8-.885c.063-.41.888-.547.879-.962-.022-.971,1.857-.316,2.166-1.244a8.838,8.838,0,0,0-.411-6.562,12.69,12.69,0,0,1-1.2-2.669c-.276-1.288.158-2.671-.3-3.914-.614-1.675-2.644-2.529-4.529-2.7s-3.8.137-5.675-.119c-1.679-.229-3.3-.909-5-.811a8.47,8.47,0,0,0-5.209,2.716,42.244,42.244,0,0,1-4.2,4.132,8.117,8.117,0,0,0-1.348,1.084,4.007,4.007,0,0,0-.671,3.432c.227,1.182.72,2.309.928,3.494.2,1.113.135,2.251.22,3.376a5.666,5.666,0,0,0,1.059,3.187,3.291,3.291,0,0,0,2.5,1.223c.339.007.625-.277.968-.2C77.257,73.15,77.443,73.529,77.822,73.692Z" transform="translate(111.385 29.458)" fill="#2f2e41"/>
      <path id="Path_288" data-name="Path 288" d="M68.247,79.791c.306-3.924.537-6.857.537-6.857l1.98-4.877,6.355,11.733Z" transform="translate(105.556 62.342)" fill="#575a89"/>
      <path id="Path_289" data-name="Path 289" d="M68.247,79.791c.306-3.924.537-6.857.537-6.857l1.98-4.877,6.355,11.733Z" transform="translate(105.556 62.342)" opacity="0.1"/>
      <path id="Path_290" data-name="Path 290" d="M73.018,60.99s5.925,14.1,2.514,16.782,19.033-4.531,19.033-4.531l-.539-1.846s-7.362-2.685-3.771-10.4S73.018,60.99,73.018,60.99Z" transform="translate(115.511 42.56)" fill="#a0616a"/>
      <path id="Path_291" data-name="Path 291" d="M73.018,60.99s5.925,14.1,2.514,16.782,19.033-4.531,19.033-4.531l-.539-1.846s-7.362-2.685-3.771-10.4S73.018,60.99,73.018,60.99Z" transform="translate(115.511 42.56)" opacity="0.1"/>
      <ellipse id="Ellipse_37" data-name="Ellipse 37" cx="12.569" cy="11.747" rx="12.569" ry="11.747" transform="translate(184.399 85.761)" fill="#a0616a"/>
      <path id="Path_292" data-name="Path 292" d="M121.581,72.019l-.138,2.564c-.18,3.32-.5,9.542-.826,16.72H71.893a22.207,22.207,0,0,1-3.1-5.187,5.281,5.281,0,0,1-.365-1.67c-.268-4.45,4-10.659,7.009-11.251,3.41-.674,9.874-7.049,9.874-7.049a1.437,1.437,0,0,0,.822,1.16v0a3.538,3.538,0,0,0,1.69.345c2.106,0,11.367-3.995,14.341-5.3.583-.255.923-.408.923-.408a73.107,73.107,0,0,0,10.6,3.36,11.023,11.023,0,0,1,7.9,6.711Z" transform="translate(105.911 50.83)" fill="#575a89"/>
      <path id="Path_293" data-name="Path 293" d="M77.124,73.285a1.058,1.058,0,0,0,1.205-.465c.969-1.427-.815-3.266-.429-4.917.309-1.323,1.917-2.107,2.246-3.426.319-1.281-.665-2.725,0-3.884A2.861,2.861,0,0,1,83.06,59.6c1.089.159,2.123.607,3.224.669a16.786,16.786,0,0,0,4.3-.819c1.434-.3,3.183-.182,4.027.942,1.083,1.444-.016,3.454.362,5.181.3,1.372,3.712,2.335,4.021,1.407a8.838,8.838,0,0,0-.411-6.562,12.69,12.69,0,0,1-1.2-2.669c-.276-1.288.158-2.671-.3-3.914-.614-1.675-2.644-2.529-4.529-2.7s-3.8.137-5.675-.119c-1.679-.229-3.3-.909-5-.811a8.47,8.47,0,0,0-5.209,2.716,42.244,42.244,0,0,1-4.2,4.132,8.118,8.118,0,0,0-1.348,1.084,4.007,4.007,0,0,0-.671,3.432c.227,1.182.72,2.309.928,3.494.2,1.113.135,2.251.22,3.376a5.666,5.666,0,0,0,1.059,3.187,3.291,3.291,0,0,0,2.5,1.223c.339.007.626-.277.968-.2C76.558,72.742,76.744,73.122,77.124,73.285Z" transform="translate(109.928 28.691)" fill="#2f2e41"/>
      <path id="Path_294" data-name="Path 294" d="M98.609,84.723H84.39c-1.082-7.417-1.976-15.171-1.976-15.171l2.873-1.176,5.839-2.936s.428.949,1.116,2.564C93.71,71.457,96.373,77.957,98.609,84.723Z" transform="translate(135.112 57.409)" opacity="0.1"/>
      <path id="Path_295" data-name="Path 295" d="M102.109,85.93H86.061c-2.378-8.115-4.723-16.936-4.723-16.936L87.445,64.8l7.181,1.846S98.829,76,102.109,85.93Z" transform="translate(132.866 56.203)" fill="#575a89"/>
      <rect id="Rectangle_347" data-name="Rectangle 347" width="67.531" height="4.312" transform="translate(279.902 70.392)" fill="#307348"/>
      <rect id="Rectangle_348" data-name="Rectangle 348" width="23.909" height="4.312" transform="translate(167.49 152.717)" fill="#307348"/>
      <rect id="Rectangle_349" data-name="Rectangle 349" width="68.37" height="4.312" transform="translate(167.49 160.558)" fill="#307348"/>
      <rect id="Rectangle_350" data-name="Rectangle 350" width="97.312" height="4.312" transform="translate(263.963 86.073)" fill="#f2f2f2"/>
      <rect id="Rectangle_351" data-name="Rectangle 351" width="97.312" height="4.312" transform="translate(263.963 98.226)" fill="#f2f2f2"/>
      <rect id="Rectangle_352" data-name="Rectangle 352" width="97.312" height="4.312" transform="translate(263.963 110.378)" fill="#f2f2f2"/>
      <rect id="Rectangle_353" data-name="Rectangle 353" width="97.312" height="4.312" transform="translate(263.963 122.531)" fill="#f2f2f2"/>
      <rect id="Rectangle_354" data-name="Rectangle 354" width="97.312" height="4.312" transform="translate(263.963 134.684)" fill="#f2f2f2"/>
      <rect id="Rectangle_355" data-name="Rectangle 355" width="97.312" height="4.312" transform="translate(263.963 146.837)" fill="#f2f2f2"/>
      <rect id="Rectangle_356" data-name="Rectangle 356" width="97.312" height="4.312" transform="translate(263.963 158.99)" fill="#f2f2f2"/>
      <path id="Path_296" data-name="Path 296" d="M165.17,78.959l-26.6,24.862-11.181-10.45a4.014,4.014,0,0,0-5.405,0l-.4-.561c-1.493,1.4-1.091,4.218.4,5.613l14.507,13.558a3.062,3.062,0,0,0,4.123,0l29.96-27.972c1.494-1.394,2.035-3.951.543-5.347h0C169.623,77.269,166.662,77.564,165.17,78.959Z" transform="translate(214.862 80.614)" fill="#57b894"/>
      <path id="Path_297" data-name="Path 297" d="M165.17,78.959l-26.6,24.862-11.181-10.45a4.014,4.014,0,0,0-5.405,0l-.4-.561c-1.493,1.4-1.091,4.218.4,5.613l14.507,13.558a3.062,3.062,0,0,0,4.123,0l29.96-27.972c1.494-1.394,2.035-3.951.543-5.347h0C169.623,77.269,166.662,77.564,165.17,78.959Z" transform="translate(214.862 80.614)" opacity="0.1"/>
      <path id="Path_298" data-name="Path 298" d="M165.021,78.473l-26.6,24.862-11.181-10.45a4.014,4.014,0,0,0-5.405,0h0a3.409,3.409,0,0,0,0,5.052L136.341,111.5a3.062,3.062,0,0,0,4.123,0l29.96-27.972a3.409,3.409,0,0,0,0-5.052h0a4.013,4.013,0,0,0-5.4,0Z" transform="translate(215.011 79.998)" fill="#57b894"/>
      <path id="Path_299" data-name="Path 299" d="M323.792,150.012c0,28.033-41.808,19.362-93,19.362s-92.376,8.671-92.376-19.362,41.8-34.13,92.992-34.13S323.792,121.979,323.792,150.012Z" transform="translate(251.945 152.461)" opacity="0.1"/>
      <path id="Path_300" data-name="Path 300" d="M323.792,148.2c0,28.033-41.808,19.362-93,19.362s-92.376,8.671-92.376-19.362,41.8-34.13,92.992-34.13S323.792,120.163,323.792,148.2Z" transform="translate(251.945 149.04)" fill="#3f3d56"/>
      <path id="Path_301" data-name="Path 301" d="M158.093,95.451,156.2,97.507s-23.034,2.021-22.1,5.516,27.733-4.66,27.733-4.66Z" transform="translate(242.877 113.963)" fill="#ffc1c7"/>
      <path id="Path_302" data-name="Path 302" d="M181.083,94.846s-24.617,8.155-38.016,4.66l6.232,11.649s31.784-.874,37.393-6.116S181.083,94.846,181.083,94.846Z" transform="translate(261.642 112.821)" fill="#307348"/>
      <path id="Path_303" data-name="Path 303" d="M181.083,94.846s-24.617,8.155-38.016,4.66l6.232,11.649s31.784-.874,37.393-6.116S181.083,94.846,181.083,94.846Z" transform="translate(261.642 112.821)" opacity="0.1"/>
      <ellipse id="Ellipse_38" data-name="Ellipse 38" cx="16.515" cy="15.435" rx="16.515" ry="15.435" transform="translate(409.539 114.326)" fill="#ffc1c7"/>
      <path id="Path_304" data-name="Path 304" d="M171.8,77.469a12.1,12.1,0,0,0,2.14,2.772,26.947,26.947,0,0,0,7.961,5.567q-14.061,2.671-28.364,3.942c1.005-3.309-.318-6.848-2.1-9.86s-4.046-5.818-5.159-9.1l11.163.28c2.025.051,4.057.108,6.082.015,1.513-.069,4.035-.917,5.448-.6C171.957,71.143,170.493,74.993,171.8,77.469Z" transform="translate(268.339 66.784)" fill="#ffc1c7"/>
      <path id="Path_305" data-name="Path 305" d="M248.423,100.83l9.348,10.484s15.58,34.074-18.385,37.569-59.205-2.621-59.205-2.621-13.711-6.116-14.022-1.456a71.252,71.252,0,0,1-9.037,30.58l-6.544,13.979s-3.428,3.2-2.493,7.572-20.878,5.825-20.566,0c0,0,3.116-4.951,3.116-7.863s4.986-9.9,4.986-9.9l9.037-41.938s-.623-21.551,20.566-17.474,51.415-.874,51.415-.874l6.855-22.425Z" transform="translate(229.202 115.866)" fill="#2f2e41"/>
      <path id="Path_306" data-name="Path 306" d="M248.423,100.83l9.348,10.484s15.58,34.074-18.385,37.569-59.205-2.621-59.205-2.621-13.711-6.116-14.022-1.456a71.252,71.252,0,0,1-9.037,30.58l-6.544,13.979s-3.428,3.2-2.493,7.572-20.878,5.825-20.566,0c0,0,3.116-4.951,3.116-7.863s4.986-9.9,4.986-9.9l9.037-41.938s-.623-21.551,20.566-17.474,51.415-.874,51.415-.874l6.855-22.425Z" transform="translate(229.202 115.866)" opacity="0.1"/>
      <path id="Path_307" data-name="Path 307" d="M232.819,99.247s28.512-10.009,44.4,11.252c0,0,4.051,32.91-12.153,34.366s-37.393,1.165-42.379-3.786-36.458-18.93-36.458-18.93-15.666-7.469-18.739,2.236-3.385,12.034-3.385,12.034-16.2,11.067-22.747,13.106c0,0-4.362,5.825-6.855,5.825s-17.762,3.2-16.2-7.572l25.24-21.551,25.24-23.008s7.167-9.9,25.552-4.66q18.3,5.091,37.081,8.446Z" transform="translate(209.75 116.681)" fill="#2f2e41"/>
      <path id="Path_308" data-name="Path 308" d="M163.915,131.654s5.921,13.979.935,15.727-15.58.582-15.58.582-12.464-1.456-15.58-1.165-15.892-2.039-14.022-6.7,11.529-3.495,11.529-3.495l8.725-3.786s.935-2.912,3.116-1.747S151.451,136.6,163.915,131.654Z" transform="translate(212.438 180.566)" fill="#cbceda"/>
      <path id="Path_309" data-name="Path 309" d="M147.828,120.942s6.544,13.688-4.051,12.523-18.7-3.2-21.812-3.495c-3-.28-11.473-2.986-10.173-8.375a4.488,4.488,0,0,0,.084-1.058c0-.724,1.052-2.143,9.465-1.925,0,0,6.232,0,8.725-4.077C130.067,114.535,139.414,125.6,147.828,120.942Z" transform="translate(196.117 149.923)" fill="#cbceda"/>
      <path id="Path_310" data-name="Path 310" d="M146.3,80.173s22.436-13.106,41.132,0,31.161,72.809,31.161,72.809l-43.313-9.028s-1.87-6.99-4.363-8.155-2.8-6.116-2.8-6.116-13.4-3.786-12.464-18.348S146.3,80.173,146.3,80.173Z" transform="translate(268.382 74.198)" fill="#307348"/>
      <path id="Path_311" data-name="Path 311" d="M168.737,76.57H157.208s-6.855,7.281-7.79,25.629l-3.739,14.562s-7.79,17.474-3.116,20.386,13.711,2.621,15.58-3.2,14.645-39.608,14.645-39.608Z" transform="translate(257.473 78.383)" fill="#307348"/>
      <path id="Path_312" data-name="Path 312" d="M169.641,61.634A17.614,17.614,0,0,1,186.91,64.28c5.984,4.991,7.192,13.134,8.7,20.5s4.556,15.56,11.98,18.4a33.363,33.363,0,0,1-10.058-.274l11.219,9.4-18.9-5.757c-5.931-1.807-12.161-3.637-18.3-2.616-10.175,1.691-17.259,10.631-27.032,13.771l1.086-4.953-6.557-.047a12.263,12.263,0,0,0,3.757-4.114,3.721,3.721,0,0,0-2.508-1.227c-2.733-15.934,7.391-31.685,20.584-42.1,2.6-2.048,5.467-4.014,8.818-4.527s7.264.889,8.43,3.87" transform="translate(253.264 48.039)" fill="#2f2e41"/>
      <path id="Path_313" data-name="Path 313" d="M56.316,111.5c0,33.522,22.5,60.648,50.308,60.648" transform="translate(80.667 144.204)" fill="#3f3d56"/>
      <path id="Path_314" data-name="Path 314" d="M72.617,172.593c0-33.9,25.11-61.329,56.141-61.329" transform="translate(114.674 143.759)" fill="#307348"/>
      <path id="Path_315" data-name="Path 315" d="M62.222,112.554c0,31.843,14.349,57.609,32.081,57.609" transform="translate(92.988 146.19)" fill="#307348"/>
      <path id="Path_316" data-name="Path 316" d="M72.617,183.723c0-43.315,29.023-78.365,64.89-78.365" transform="translate(114.674 132.63)" fill="#3f3d56"/>
      <path id="Path_317" data-name="Path 317" d="M69.188,135.029s7.135-.205,9.285-1.636,10.975-3.14,11.508-.845,10.722,11.414,2.667,11.475-18.716-1.173-20.862-2.394S69.188,135.029,69.188,135.029Z" transform="translate(107.519 181.751)" fill="#a8a8a8"/>
      <path id="Path_318" data-name="Path 318" d="M92.791,140.875c-8.055.061-18.716-1.173-20.862-2.394-1.634-.93-2.286-4.269-2.5-5.809l-.238.009s.452,5.378,2.6,6.6,12.807,2.455,20.862,2.394c2.325-.018,3.128-.791,3.084-1.936C95.409,140.43,94.522,140.862,92.791,140.875Z" transform="translate(107.519 184.1)" opacity="0.2"/>
    </g>
  </g>
</svg>
